HIERARCHY
ROOT Hips
{
	OFFSET -3.958830 18.904000 13.208200
	CHANNELS 6 Xposition Yposition Zposition Zrotation Yrotation Xrotation 
	JOINT LHipJoint
	{
		OFFSET 0.000000 0.000000 0.000000
		CHANNELS 3 Zrotation Yrotation Xrotation
		JOINT LeftUpLeg
		{
			OFFSET 1.800000 -1.400000 0.085000
			CHANNELS 3 Zrotation Yrotation Xrotation
			JOINT LeftLeg
			{
				OFFSET 2.215000 -6.000000 0.000000
				CHANNELS 3 Zrotation Yrotation Xrotation
				JOINT LeftFoot
				{
					OFFSET 2.500000 -6.900000 0.000000
					CHANNELS 3 Zrotation Yrotation Xrotation
					JOINT LeftToeBase
					{
						OFFSET 0.200000 -0.500000 1.950000
						CHANNELS 3 Zrotation Yrotation Xrotation
						End Site
						{
							OFFSET 0.000000 0.000000 0.000000
						}
					}
				}
			}
		}
	}
	JOINT RHipJoint
	{
		OFFSET 0.000000 0.000000 0.000000
		CHANNELS 3 Zrotation Yrotation Xrotation
		JOINT RightUpLeg
		{
			OFFSET -1.800000 -1.400000 0.085000
			CHANNELS 3 Zrotation Yrotation Xrotation
			JOINT RightLeg
			{
				OFFSET -2.215000 -6.000000 0.000000
				CHANNELS 3 Zrotation Yrotation Xrotation
				JOINT RightFoot
				{
					OFFSET -2.500000 -6.900000 0.000000
					CHANNELS 3 Zrotation Yrotation Xrotation
					JOINT RightToeBase
					{
						OFFSET -0.200000 -0.500000 1.950000
						CHANNELS 3 Zrotation Yrotation Xrotation
						End Site
						{
							OFFSET 0.000000 0.000000 0.000000
						}
					}
				}
			}
		}
	}
	JOINT LowerBack
	{
		OFFSET 0.000000 0.000000 0.000000
		CHANNELS 3 Zrotation Yrotation Xrotation
		JOINT Spine
		{
			OFFSET -0.087000 1.940000 -0.288900
			CHANNELS 3 Zrotation Yrotation Xrotation
			JOINT Spine1
			{
				OFFSET 0.000000 1.950000 0.060000
				CHANNELS 3 Zrotation Yrotation Xrotation
				JOINT Neck
				{
					OFFSET 0.000000 0.000000 0.000000
					CHANNELS 3 Zrotation Yrotation Xrotation
					JOINT Neck1
					{
						OFFSET 0.000000 1.600000 0.340000
						CHANNELS 3 Zrotation Yrotation Xrotation
						JOINT Head
						{
							OFFSET 0.000000 1.667000 -0.240000
							CHANNELS 3 Zrotation Yrotation Xrotation
							End Site
							{
								OFFSET 0.000000 0.000000 0.000000
							}
						}
					}
				}
				JOINT LeftShoulder
				{
					OFFSET 0.000000 0.000000 0.000000
					CHANNELS 3 Zrotation Yrotation Xrotation
					JOINT LeftArm
					{
						OFFSET 2.700000 1.550000 -0.730000
						CHANNELS 3 Zrotation Yrotation Xrotation
						JOINT LeftForeArm
						{
							OFFSET 5.450000 0.000000 0.000000
							CHANNELS 3 Zrotation Yrotation Xrotation
							JOINT LeftHand
							{
								OFFSET 3.450000 0.000000 0.000000
								CHANNELS 3 Zrotation Yrotation Xrotation
								JOINT LeftHandIndex1
								{
									OFFSET 0.750000 0.000000 0.000000
									CHANNELS 3 Zrotation Yrotation Xrotation
									End Site
									{
										OFFSET 0.000000 0.000000 0.000000
									}
								}
							}
						}
					}
				}
				JOINT RightShoulder
				{
					OFFSET 0.000000 0.000000 0.000000
					CHANNELS 3 Zrotation Yrotation Xrotation
					JOINT RightArm
					{
						OFFSET -2.700000 1.550000 -0.730000
						CHANNELS 3 Zrotation Yrotation Xrotation
						JOINT RightForeArm
						{
							OFFSET -5.450000 0.000000 0.000000
							CHANNELS 3 Zrotation Yrotation Xrotation
							JOINT RightHand
							{
								OFFSET -3.450000 0.000000 0.000000
								CHANNELS 3 Zrotation Yrotation Xrotation
								JOINT RightHandIndex1
								{
									OFFSET -0.750000 0.000000 0.000000
									CHANNELS 3 Zrotation Yrotation Xrotation
									End Site
									{
										OFFSET 0.000000 0.000000 0.000000
									}
								}
							}
						}
					}
				}
			}
		}
	}
}
MOTION
Frames: 7
Frame Time: 0.016667
-13.299740 17.311600 11.724780 11.723569 -30.697501 6.546499 -15.057350 11.643284 4.322542 -22.156385 -0.527309 -11.669355 -15.149353 2.963521 -10.900405 -0.104498 3.180729 3.692946 0.346390 0.245060 0.191640 18.529399 -10.736648 3.018182 -8.743596 2.225856 -19.641715 -6.470509 -0.975329 -3.005299 -0.140005 -2.673675 3.225046 0.149200 0.318650 0.292500 -4.270950 -0.116393 -8.485825 24.048209 -11.201457 10.665541 -34.818569 -4.297241 -3.792432 14.763065 -10.767545 -22.706259 -9.576483 -13.345485 9.830370 -1.502990 -9.247940 -13.425150 6.506729 0.368019 6.046456 2.167102 23.015199 0.196952 15.053159 3.335236 0.148419 -4.330552 3.013031 0.161680 0.081900 -0.017810 0.219670 -34.140045 25.167085 9.773614 -39.939960 -10.583806 -11.473333 -15.231543 -12.645390 -1.680205 4.733300 -0.525181 -0.044570 0.056070 -0.130810 0.159790 
-13.361100 17.375560 11.719560 7.735087 -42.156340 6.102349 -15.139799 11.811925 4.251387 -22.868242 -0.782945 -11.562498 -4.286093 2.477012 -7.697598 -0.512945 2.784621 3.831223 0.449410 0.319940 0.224900 18.446167 -10.867806 3.100261 -2.893580 2.708804 -18.246114 -5.682405 -1.022327 -1.831390 -0.131614 -2.607170 3.191310 0.304490 0.444630 0.336060 -4.338642 0.566505 -8.539462 27.056210 -10.612916 14.418863 -36.422312 -2.415457 -3.253922 16.721082 -11.576132 -23.974766 -11.152434 -9.341867 9.914076 -0.280330 -7.835250 -14.547190 5.343120 3.324678 3.662963 -0.785219 29.276426 0.176195 21.788086 -1.513616 0.097403 -4.447535 3.198681 0.215640 0.150780 -0.072140 0.242430 -36.321175 27.949274 12.692049 -38.302848 -10.355002 -15.557825 -20.886008 -18.776969 -1.668282 6.445844 -0.578189 -0.136520 0.182490 -0.049290 0.123000 
-13.317790 17.364320 11.641530 6.804059 -34.506087 4.150865 -15.161158 11.519697 4.063701 -22.403002 -0.227747 -9.828824 -0.209805 2.434516 -8.277004 -0.463808 2.768012 3.903345 0.396000 0.414240 0.084580 18.466473 -10.863714 3.294936 -3.905217 2.341941 -16.938199 -0.950626 -1.362279 -4.392932 -0.142851 -2.935412 3.186233 0.389040 0.587360 0.253620 -4.318189 0.086493 -8.477406 27.760516 -15.643019 14.061943 -36.524788 -6.533095 1.682790 19.244046 -13.503462 -24.816950 -10.885275 -8.860875 7.654468 0.150650 -7.562900 -13.763680 8.109246 3.459130 3.133701 -12.101994 34.979048 -6.545263 41.368735 -14.834858 -3.454566 -4.460303 3.409017 0.092760 0.256340 -0.122650 0.314660 -43.755835 28.726580 13.656326 -28.022514 -10.504714 -15.026066 -20.707425 -25.678513 -1.966811 11.238376 -0.292305 -0.178410 0.333290 -0.064990 0.212940 
-13.239600 17.406480 11.685770 7.495885 -29.373234 6.170127 -15.059151 12.175365 3.935348 -14.166932 -1.019837 -12.773357 -15.424687 3.982427 -3.730538 -0.197238 3.293648 3.709330 0.298290 0.196790 0.244000 18.464616 -10.776635 2.926609 -5.968884 2.250694 -19.892103 0.483852 -1.956713 2.335124 0.003698 -2.438035 3.360209 0.153610 0.341160 0.204230 -4.082945 -0.840443 -7.993779 28.237259 -12.424417 10.661233 -35.678550 -1.837858 0.791368 16.824200 -10.059243 -23.272947 -7.667351 -14.132163 8.041682 -5.199990 -8.830110 -12.050490 1.864613 -3.807240 5.631786 -8.067392 29.090333 -5.891550 41.253246 -12.964615 -3.174231 -4.173391 3.454589 0.172970 0.128030 -0.057600 0.207000 -32.581436 28.951437 10.660482 -29.955527 -5.365680 -12.922278 -26.487845 -19.884051 -0.611451 6.072591 -1.147401 -0.152730 0.125440 -0.170190 0.112620 
-13.232520 17.405090 11.656130 14.519406 -22.973136 4.796329 -15.126467 12.449656 4.200434 -7.588929 -0.419511 -11.739965 -31.572943 7.496036 0.231078 0.462017 5.113716 2.987092 0.398150 0.275890 0.452880 18.244858 -10.310574 3.132277 -14.280913 2.036452 -21.909074 2.143605 -1.832861 -0.743188 -0.123134 -2.496347 3.281620 0.081510 0.055830 0.235670 -3.450091 -1.454901 -8.594538 14.664307 -6.134665 10.385086 -27.465971 0.219833 -5.504849 13.003179 -5.477013 -21.792894 -4.241518 -13.959180 14.367408 -8.611880 -6.526740 -12.899840 -6.304553 -9.803414 6.722273 -0.655894 26.868708 -3.376296 41.292142 -20.339760 -4.349552 -3.842784 3.503684 0.280720 -0.025340 0.144350 0.174940 -18.709860 29.946296 10.788758 -30.583320 1.458106 -11.920992 -31.864172 -12.729951 -0.300659 4.359974 -1.613769 -0.033720 -0.067970 -0.342220 0.059590 
-13.272100 17.431530 11.619910 15.395224 -22.656042 6.700139 -15.231327 11.874783 5.301153 23.866079 7.065144 2.388996 -62.453930 12.064158 -6.725952 1.584956 9.000298 1.725784 0.548830 0.483850 0.466450 18.181942 -9.904852 2.969161 -15.016091 3.215932 -25.202761 3.500824 -2.045198 3.353713 -0.090470 -2.168074 3.384411 0.225460 0.044430 0.213320 -3.263800 -1.162746 -9.730063 11.904586 -5.625239 5.229415 -24.214903 0.088306 -5.158988 13.218096 -6.884793 -24.154814 -8.738897 -8.809683 24.455290 -6.969480 -6.186480 -11.699220 -6.319105 -8.098301 3.838195 -4.800350 24.437980 -4.225310 43.472414 -23.507151 -5.577718 -3.761956 3.475216 0.274280 -0.050190 0.173180 0.241450 -19.351364 35.594231 11.041528 -23.469446 6.785569 -10.972596 -33.707799 -15.214369 -0.425275 4.389112 -1.744290 0.001400 -0.005990 -0.387340 0.090940 
-13.108950 17.404810 11.582480 14.316143 -19.623948 7.845262 -15.426305 11.507316 6.023367 38.182635 7.200971 3.597874 -63.371628 14.809420 -5.103267 1.857475 10.070848 1.473011 0.211590 0.115670 0.219930 18.192961 -9.184741 2.604704 -16.901078 3.858449 -26.511555 4.475059 -2.577057 6.493379 0.049071 -2.058375 3.526625 -0.003500 0.197660 0.117000 -3.226832 -2.220637 -9.775034 16.775019 -7.231629 4.955877 -28.197389 1.199255 -3.800539 14.243735 -8.263204 -25.598973 -11.341690 -11.642832 24.482952 -7.027090 -10.026430 -9.111900 -4.333142 -7.909647 3.234458 -12.103156 18.667880 -7.231990 44.829319 -23.360763 -6.885688 -3.761436 3.217784 0.262750 -0.015420 0.070490 0.196860 -21.867933 36.529227 10.668876 -15.540858 5.970622 -10.565711 -32.553106 -14.951585 -0.152800 4.455354 -1.620564 -0.104690 0.132760 -0.213740 0.126380 
